<mxfile host="65bd71144e">
    <diagram id="KWe4NPrFDqVZ6Y2HZTIz" name="Page-1">
        <mxGraphModel dx="290" dy="250" grid="1" gridSize="10" guides="1" tooltips="1" connect="1" arrows="1" fold="1" page="1" pageScale="1" pageWidth="850" pageHeight="1100" math="0" shadow="0">
            <root>
                <mxCell id="0"/>
                <mxCell id="1" parent="0"/>
                <mxCell id="5" value="&lt;b&gt;AgeVisitor&lt;/b&gt;" style="swimlane;fontStyle=0;align=center;verticalAlign=top;childLayout=stackLayout;horizontal=1;startSize=30;horizontalStack=0;resizeParent=1;resizeParentMax=0;resizeLast=0;collapsible=0;marginBottom=0;html=1;" vertex="1" parent="1">
                    <mxGeometry x="270" y="200" width="190" height="128" as="geometry"/>
                </mxCell>
                <mxCell id="6" value="attributes" style="text;html=1;strokeColor=none;fillColor=none;align=center;verticalAlign=middle;spacingLeft=4;spacingRight=4;overflow=hidden;rotatable=0;points=[[0,0.5],[1,0.5]];portConstraint=eastwest;" vertex="1" parent="5">
                    <mxGeometry y="30" width="190" height="20" as="geometry"/>
                </mxCell>
                <mxCell id="7" value="+ sum : int&lt;br&gt;+ nodeHoja : int" style="text;html=1;strokeColor=none;fillColor=none;align=left;verticalAlign=middle;spacingLeft=4;spacingRight=4;overflow=hidden;rotatable=0;points=[[0,0.5],[1,0.5]];portConstraint=eastwest;" vertex="1" parent="5">
                    <mxGeometry y="50" width="190" height="30" as="geometry"/>
                </mxCell>
                <mxCell id="10" value="" style="line;strokeWidth=1;fillColor=none;align=left;verticalAlign=middle;spacingTop=-1;spacingLeft=3;spacingRight=3;rotatable=0;labelPosition=right;points=[];portConstraint=eastwest;" vertex="1" parent="5">
                    <mxGeometry y="80" width="190" height="8" as="geometry"/>
                </mxCell>
                <mxCell id="11" value="operations" style="text;html=1;strokeColor=none;fillColor=none;align=center;verticalAlign=middle;spacingLeft=4;spacingRight=4;overflow=hidden;rotatable=0;points=[[0,0.5],[1,0.5]];portConstraint=eastwest;" vertex="1" parent="5">
                    <mxGeometry y="88" width="190" height="20" as="geometry"/>
                </mxCell>
                <mxCell id="12" value="+ Visit (visitable : Node&amp;lt;Person&amp;gt;)" style="text;html=1;strokeColor=none;fillColor=none;align=left;verticalAlign=middle;spacingLeft=4;spacingRight=4;overflow=hidden;rotatable=0;points=[[0,0.5],[1,0.5]];portConstraint=eastwest;" vertex="1" parent="5">
                    <mxGeometry y="108" width="190" height="20" as="geometry"/>
                </mxCell>
                <mxCell id="13" value="&lt;b&gt;NameVisitor&lt;/b&gt;" style="swimlane;fontStyle=0;align=center;verticalAlign=top;childLayout=stackLayout;horizontal=1;startSize=30;horizontalStack=0;resizeParent=1;resizeParentMax=0;resizeLast=0;collapsible=0;marginBottom=0;html=1;" vertex="1" parent="1">
                    <mxGeometry x="480" y="200" width="190" height="118" as="geometry"/>
                </mxCell>
                <mxCell id="14" value="attributes" style="text;html=1;strokeColor=none;fillColor=none;align=center;verticalAlign=middle;spacingLeft=4;spacingRight=4;overflow=hidden;rotatable=0;points=[[0,0.5],[1,0.5]];portConstraint=eastwest;" vertex="1" parent="13">
                    <mxGeometry y="30" width="190" height="20" as="geometry"/>
                </mxCell>
                <mxCell id="15" value="+ longerName : string" style="text;html=1;strokeColor=none;fillColor=none;align=left;verticalAlign=middle;spacingLeft=4;spacingRight=4;overflow=hidden;rotatable=0;points=[[0,0.5],[1,0.5]];portConstraint=eastwest;" vertex="1" parent="13">
                    <mxGeometry y="50" width="190" height="20" as="geometry"/>
                </mxCell>
                <mxCell id="16" value="" style="line;strokeWidth=1;fillColor=none;align=left;verticalAlign=middle;spacingTop=-1;spacingLeft=3;spacingRight=3;rotatable=0;labelPosition=right;points=[];portConstraint=eastwest;" vertex="1" parent="13">
                    <mxGeometry y="70" width="190" height="8" as="geometry"/>
                </mxCell>
                <mxCell id="17" value="operations" style="text;html=1;strokeColor=none;fillColor=none;align=center;verticalAlign=middle;spacingLeft=4;spacingRight=4;overflow=hidden;rotatable=0;points=[[0,0.5],[1,0.5]];portConstraint=eastwest;" vertex="1" parent="13">
                    <mxGeometry y="78" width="190" height="20" as="geometry"/>
                </mxCell>
                <mxCell id="18" value="+ Visit (visitable : Node&amp;lt;Person&amp;gt;)" style="text;html=1;strokeColor=none;fillColor=none;align=left;verticalAlign=middle;spacingLeft=4;spacingRight=4;overflow=hidden;rotatable=0;points=[[0,0.5],[1,0.5]];portConstraint=eastwest;" vertex="1" parent="13">
                    <mxGeometry y="98" width="190" height="20" as="geometry"/>
                </mxCell>
                <mxCell id="19" value="IVisitor&amp;lt;T&amp;gt;" style="swimlane;fontStyle=1;align=center;verticalAlign=middle;childLayout=stackLayout;horizontal=1;startSize=29;horizontalStack=0;resizeParent=1;resizeParentMax=0;resizeLast=0;collapsible=0;marginBottom=0;html=1;" vertex="1" parent="1">
                    <mxGeometry x="370" y="80" width="190" height="49" as="geometry"/>
                </mxCell>
                <mxCell id="22" value="+ Visit (visitable : Node&amp;lt;T&amp;gt;)" style="text;html=1;strokeColor=none;fillColor=none;align=left;verticalAlign=middle;spacingLeft=4;spacingRight=4;overflow=hidden;rotatable=0;points=[[0,0.5],[1,0.5]];portConstraint=eastwest;" vertex="1" parent="19">
                    <mxGeometry y="29" width="190" height="20" as="geometry"/>
                </mxCell>
                <mxCell id="23" value="" style="endArrow=block;dashed=1;endFill=0;endSize=12;html=1;exitX=0.5;exitY=0;exitDx=0;exitDy=0;entryX=0.274;entryY=1.07;entryDx=0;entryDy=0;entryPerimeter=0;" edge="1" parent="1" source="5" target="22">
                    <mxGeometry width="160" relative="1" as="geometry">
                        <mxPoint x="285" y="129" as="sourcePoint"/>
                        <mxPoint x="445" y="129" as="targetPoint"/>
                    </mxGeometry>
                </mxCell>
                <mxCell id="24" value="" style="endArrow=block;dashed=1;endFill=0;endSize=12;html=1;exitX=0.5;exitY=0;exitDx=0;exitDy=0;entryX=0.741;entryY=1.07;entryDx=0;entryDy=0;entryPerimeter=0;" edge="1" parent="1" source="13" target="22">
                    <mxGeometry width="160" relative="1" as="geometry">
                        <mxPoint x="410" y="200" as="sourcePoint"/>
                        <mxPoint x="490" y="129" as="targetPoint"/>
                    </mxGeometry>
                </mxCell>
                <mxCell id="25" value="IVisitable&amp;lt;T&amp;gt;" style="swimlane;fontStyle=1;align=center;verticalAlign=middle;childLayout=stackLayout;horizontal=1;startSize=29;horizontalStack=0;resizeParent=1;resizeParentMax=0;resizeLast=0;collapsible=0;marginBottom=0;html=1;" vertex="1" parent="1">
                    <mxGeometry x="800" y="80" width="190" height="49" as="geometry"/>
                </mxCell>
                <mxCell id="26" value="+ Accept (visitor : IVisitor&amp;lt;T&amp;gt;)" style="text;html=1;strokeColor=none;fillColor=none;align=left;verticalAlign=middle;spacingLeft=4;spacingRight=4;overflow=hidden;rotatable=0;points=[[0,0.5],[1,0.5]];portConstraint=eastwest;" vertex="1" parent="25">
                    <mxGeometry y="29" width="190" height="20" as="geometry"/>
                </mxCell>
                <mxCell id="27" value="&lt;b&gt;Node&amp;lt;T&amp;gt;&lt;/b&gt;" style="swimlane;fontStyle=0;align=center;verticalAlign=top;childLayout=stackLayout;horizontal=1;startSize=30;horizontalStack=0;resizeParent=1;resizeParentMax=0;resizeLast=0;collapsible=0;marginBottom=0;html=1;" vertex="1" parent="1">
                    <mxGeometry x="745" y="200" width="300" height="180" as="geometry"/>
                </mxCell>
                <mxCell id="28" value="attributes" style="text;html=1;strokeColor=none;fillColor=none;align=center;verticalAlign=middle;spacingLeft=4;spacingRight=4;overflow=hidden;rotatable=0;points=[[0,0.5],[1,0.5]];portConstraint=eastwest;" vertex="1" parent="27">
                    <mxGeometry y="30" width="300" height="20" as="geometry"/>
                </mxCell>
                <mxCell id="29" value="- element : T&lt;br&gt;- children : List&amp;lt;Node&amp;lt;T&amp;gt;&amp;gt;&lt;br&gt;+ Element : T" style="text;html=1;strokeColor=none;fillColor=none;align=left;verticalAlign=middle;spacingLeft=4;spacingRight=4;overflow=hidden;rotatable=0;points=[[0,0.5],[1,0.5]];portConstraint=eastwest;" vertex="1" parent="27">
                    <mxGeometry y="50" width="300" height="50" as="geometry"/>
                </mxCell>
                <mxCell id="30" value="" style="line;strokeWidth=1;fillColor=none;align=left;verticalAlign=middle;spacingTop=-1;spacingLeft=3;spacingRight=3;rotatable=0;labelPosition=right;points=[];portConstraint=eastwest;" vertex="1" parent="27">
                    <mxGeometry y="100" width="300" height="8" as="geometry"/>
                </mxCell>
                <mxCell id="31" value="operations" style="text;html=1;strokeColor=none;fillColor=none;align=center;verticalAlign=middle;spacingLeft=4;spacingRight=4;overflow=hidden;rotatable=0;points=[[0,0.5],[1,0.5]];portConstraint=eastwest;" vertex="1" parent="27">
                    <mxGeometry y="108" width="300" height="20" as="geometry"/>
                </mxCell>
                <mxCell id="32" value="+ ReadOnlyCollection&amp;lt;Node&amp;lt;T&amp;gt;&amp;gt; Children { /get;}&lt;br&gt;+ AddChildren (n : Node&amp;lt;T&amp;gt;) : void&lt;br&gt;+ Accept (visitor : IVisitor&amp;lt;T&amp;gt;) : void" style="text;html=1;strokeColor=none;fillColor=none;align=left;verticalAlign=middle;spacingLeft=4;spacingRight=4;overflow=hidden;rotatable=0;points=[[0,0.5],[1,0.5]];portConstraint=eastwest;" vertex="1" parent="27">
                    <mxGeometry y="128" width="300" height="52" as="geometry"/>
                </mxCell>
                <mxCell id="41" value="Use" style="endArrow=open;endSize=12;dashed=1;html=1;" edge="1" parent="27">
                    <mxGeometry width="160" relative="1" as="geometry">
                        <mxPoint x="-165" y="120" as="sourcePoint"/>
                        <mxPoint x="-5" y="150" as="targetPoint"/>
                        <Array as="points">
                            <mxPoint x="-165" y="150"/>
                        </Array>
                    </mxGeometry>
                </mxCell>
                <mxCell id="33" value="" style="endArrow=block;dashed=1;endFill=0;endSize=12;html=1;exitX=0.5;exitY=0;exitDx=0;exitDy=0;entryX=0.495;entryY=0.95;entryDx=0;entryDy=0;entryPerimeter=0;" edge="1" parent="1" source="27" target="26">
                    <mxGeometry width="160" relative="1" as="geometry">
                        <mxPoint x="954.21" y="198.6" as="sourcePoint"/>
                        <mxPoint x="890" y="128.99999999999997" as="targetPoint"/>
                    </mxGeometry>
                </mxCell>
                <mxCell id="34" value="&lt;b&gt;Person&lt;/b&gt;" style="swimlane;fontStyle=0;align=center;verticalAlign=top;childLayout=stackLayout;horizontal=1;startSize=30;horizontalStack=0;resizeParent=1;resizeParentMax=0;resizeLast=0;collapsible=0;marginBottom=0;html=1;" vertex="1" parent="1">
                    <mxGeometry x="800" y="450" width="190" height="108" as="geometry"/>
                </mxCell>
                <mxCell id="35" value="attributes" style="text;html=1;strokeColor=none;fillColor=none;align=center;verticalAlign=middle;spacingLeft=4;spacingRight=4;overflow=hidden;rotatable=0;points=[[0,0.5],[1,0.5]];portConstraint=eastwest;" vertex="1" parent="34">
                    <mxGeometry y="30" width="190" height="20" as="geometry"/>
                </mxCell>
                <mxCell id="36" value="+ Name : string&lt;br&gt;+ Age : int" style="text;html=1;strokeColor=none;fillColor=none;align=left;verticalAlign=middle;spacingLeft=4;spacingRight=4;overflow=hidden;rotatable=0;points=[[0,0.5],[1,0.5]];portConstraint=eastwest;" vertex="1" parent="34">
                    <mxGeometry y="50" width="190" height="30" as="geometry"/>
                </mxCell>
                <mxCell id="37" value="" style="line;strokeWidth=1;fillColor=none;align=left;verticalAlign=middle;spacingTop=-1;spacingLeft=3;spacingRight=3;rotatable=0;labelPosition=right;points=[];portConstraint=eastwest;" vertex="1" parent="34">
                    <mxGeometry y="80" width="190" height="8" as="geometry"/>
                </mxCell>
                <mxCell id="38" value="operations" style="text;html=1;strokeColor=none;fillColor=none;align=center;verticalAlign=middle;spacingLeft=4;spacingRight=4;overflow=hidden;rotatable=0;points=[[0,0.5],[1,0.5]];portConstraint=eastwest;" vertex="1" parent="34">
                    <mxGeometry y="88" width="190" height="20" as="geometry"/>
                </mxCell>
                <mxCell id="40" value="Use" style="endArrow=open;endSize=12;dashed=1;html=1;entryX=-0.002;entryY=0.831;entryDx=0;entryDy=0;entryPerimeter=0;" edge="1" parent="1" target="32">
                    <mxGeometry width="160" relative="1" as="geometry">
                        <mxPoint x="360" y="328" as="sourcePoint"/>
                        <mxPoint x="520" y="328" as="targetPoint"/>
                        <Array as="points">
                            <mxPoint x="360" y="370"/>
                        </Array>
                    </mxGeometry>
                </mxCell>
                <mxCell id="43" value="Use" style="endArrow=open;endSize=12;dashed=1;html=1;entryX=0.5;entryY=0;entryDx=0;entryDy=0;" edge="1" parent="1" target="34">
                    <mxGeometry width="160" relative="1" as="geometry">
                        <mxPoint x="895" y="380" as="sourcePoint"/>
                        <mxPoint x="899" y="450" as="targetPoint"/>
                    </mxGeometry>
                </mxCell>
            </root>
        </mxGraphModel>
    </diagram>
</mxfile>